<svg width="48" height="48" viewBox="0 0 48 48" fill="none" xmlns="http://www.w3.org/2000/svg">
<path d="M8.68888 0.966926C8.24988 0.573926 7.58188 0.588926 7.16188 1.00193L1.70288 6.38393L4.07588 6.26493L2.59888 7.74193L2.60188 7.74593L5.06488 7.62293L3.58688 9.10093L3.58888 9.10393L6.05388 8.98093L4.57488 10.4599L4.57588 10.4619L7.04288 10.3389L5.56188 11.8199L5.56288 11.8209L8.03188 11.6979L6.55088 13.1799L9.02188 13.0559L7.53988 14.5359L10.0109 14.4119L8.52988 15.8939L10.9999 15.7709L9.51788 17.2529L11.9889 17.1289L10.5079 18.6099L12.9789 18.4869L11.4979 19.9679L13.9689 19.8439L12.4879 21.3249L14.9589 21.2019L13.4779 22.6829L15.9489 22.5589L14.4679 24.0399L16.9389 23.9159L15.4529 25.3999L17.9239 25.2759L16.4429 26.7569L18.9139 26.6329L17.4319 28.1149L19.9029 27.9909L18.4209 29.4729L20.8919 29.3489L19.4109 30.8309L21.8819 30.7069L20.3999 32.1889L22.8709 32.0649L21.3899 33.5469L23.8609 33.4229L22.3789 34.9039L24.8499 34.7809L23.3689 36.2619L25.8399 36.1379L24.3579 37.6189L26.6389 37.5049L37.4239 26.7199L8.68888 0.966926ZM6.99988 5.99993C6.44788 5.99993 5.99988 5.55193 5.99988 4.99993C5.99988 4.44793 6.44788 3.99993 6.99988 3.99993C7.55188 3.99993 7.99988 4.44793 7.99988 4.99993C7.99988 5.55193 7.55188 5.99993 6.99988 5.99993Z" fill="url(#paint0_linear_24853_70304)"/>
<path d="M27.036 28.3391L24.355 30.4971L24.202 30.6341C23.43 31.4061 22.977 32.3811 22.854 33.3951L23.433 33.3661L23.351 33.4481L23.858 33.4231L22.87 34.4111C22.882 34.5411 22.881 34.6711 22.905 34.8011L24.422 34.7251L24.34 34.8071L24.847 34.7821L23.447 36.1821L25.411 36.0841L25.329 36.1661L25.836 36.1411L24.436 37.5411L26.4 37.4431L26.318 37.5251L26.635 37.5091L28.042 36.1021L26.931 34.3441C26.766 34.0821 26.789 33.7521 26.981 33.5171L30.462 30.6871L30.615 30.5501C31.511 29.6541 32 28.4631 31.994 27.1961C31.987 25.9301 31.491 24.7271 30.578 23.8551L30.113 23.4011C30.113 23.4011 30.11 23.3981 30.107 23.3951C29.845 23.1331 29.829 22.7111 30.072 22.4311L30.576 21.8471L37.289 27.6151C37.527 27.1701 37.458 26.6151 37.07 26.2661L29.104 19.3061C29.076 19.3361 28.228 18.4481 28.2 18.4801L27.047 19.8141C25.433 21.6781 25.047 24.5481 26.734 26.3441C27.67 27.3341 27.419 28.0881 27.036 28.3391Z" fill="url(#paint1_linear_24853_70304)"/>
<path d="M36.296 46.829L36.242 46.328C36.148 45.454 36.468 44.593 37.091 44.017C39.038 42.217 41.715 39.238 42.842 36.356C43.193 35.457 43.992 34.847 44.902 34.758C45.467 34.703 45.688 33.948 45.253 33.558L30.463 20.311C30.073 19.962 29.493 20.014 29.165 20.428L28.12 21.746C27.272 22.815 27.352 24.405 28.302 25.374L28.736 25.816C29.737 26.837 29.764 28.531 28.798 29.586L25.537 32.479C24.725 33.365 24.598 34.733 25.23 35.774L28.005 40.338C29.002 41.977 30.266 43.413 31.738 44.577L35.333 47.42C35.759 47.759 36.357 47.391 36.296 46.829ZM32.018 41.445C31.285 40.782 31.151 39.632 31.709 38.799L37.012 32.023C37.644 31.08 38.901 30.924 39.723 31.685L39.742 31.703C40.463 32.371 40.588 33.514 40.03 34.339L34.707 41.098C34.079 42.027 32.839 42.187 32.018 41.445Z" fill="url(#paint2_linear_24853_70304)"/>
<path d="M35.453 41.67L40.775 34.911C41.616 33.667 41.434 31.97 40.324 30.945C39.738 30.401 38.959 30.145 38.187 30.241C37.416 30.337 36.715 30.778 36.264 31.451L30.96 38.228C30.168 39.408 30.317 41.049 31.281 42.053C31.327 42.101 31.374 42.146 31.423 42.191C32.009 42.721 32.781 42.968 33.544 42.87C34.308 42.772 35.003 42.335 35.453 41.67ZM32.018 41.445C31.285 40.782 31.151 39.632 31.709 38.799L37.012 32.023C37.644 31.08 38.901 30.924 39.723 31.685L39.742 31.703C40.463 32.371 40.5879 33.514 40.03 34.339L34.707 41.098C34.079 42.027 32.839 42.187 32.018 41.445Z" fill="url(#paint3_linear_24853_70304)"/>
<path d="M30 24C30.5523 24 31 23.5523 31 23C31 22.4477 30.5523 22 30 22C29.4477 22 29 22.4477 29 23C29 23.5523 29.4477 24 30 24Z" fill="#87909A"/>
<path d="M27 35C27.5523 35 28 34.5523 28 34C28 33.4477 27.5523 33 27 33C26.4477 33 26 33.4477 26 34C26 34.5523 26.4477 35 27 35Z" fill="#7A828C"/>
<path d="M45.253 33.5579L43.61 32.0859L33.313 45.8239L35.333 47.4209C35.76 47.7579 36.357 47.3909 36.297 46.8289L36.243 46.3279C36.149 45.4539 36.469 44.5929 37.092 44.0169C39.039 42.2169 41.716 39.2379 42.843 36.3559C43.194 35.4569 43.993 34.8469 44.903 34.7579C45.467 34.7019 45.688 33.9469 45.253 33.5579Z" fill="url(#paint4_linear_24853_70304)"/>
<defs>
<linearGradient id="paint0_linear_24853_70304" x1="18.7589" y1="20.3809" x2="-5.13112" y2="8.53192" gradientUnits="userSpaceOnUse">
<stop stop-color="#87909B"/>
<stop offset="0.509" stop-color="#A7ADB7"/>
<stop offset="1" stop-color="#E8EAEE"/>
</linearGradient>
<linearGradient id="paint1_linear_24853_70304" x1="31.517" y1="32.9651" x2="25.008" y2="23.8221" gradientUnits="userSpaceOnUse">
<stop stop-color="#171714" stop-opacity="0.5"/>
<stop offset="1" stop-color="#171714" stop-opacity="0"/>
</linearGradient>
<linearGradient id="paint2_linear_24853_70304" x1="34.662" y1="23.4513" x2="35.3931" y2="39.4543" gradientUnits="userSpaceOnUse">
<stop stop-color="#DDB186"/>
<stop offset="1" stop-color="#B68059"/>
</linearGradient>
<linearGradient id="paint3_linear_24853_70304" x1="35.8103" y1="40.9587" x2="36.0877" y2="22.0329" gradientUnits="userSpaceOnUse">
<stop stop-color="#B1825B"/>
<stop offset="0.427" stop-color="#B4855E"/>
<stop offset="1" stop-color="#AC7B55"/>
</linearGradient>
<linearGradient id="paint4_linear_24853_70304" x1="44.4018" y1="44.0427" x2="38.3964" y2="38.9001" gradientUnits="userSpaceOnUse">
<stop stop-color="#754C24"/>
<stop offset="1" stop-color="#754C24" stop-opacity="0"/>
</linearGradient>
</defs>
</svg>
