<svg width="48" height="48" viewBox="0 0 48 48" fill="none" xmlns="http://www.w3.org/2000/svg">
<path d="M34.8821 28.4679L34.7671 37.8939L44.5961 33.8589L45.0001 25.1819L34.8821 28.4679Z" fill="url(#paint0_linear_24853_70021)"/>
<path d="M34.882 28.468L25.196 25.845L32.23 22.155L45 25.182L34.882 28.468Z" fill="url(#paint1_linear_24853_70021)"/>
<path d="M34.7671 37.894L19.6621 32.706L25.1961 25.845L34.8821 28.468L34.7671 37.894Z" fill="url(#paint2_linear_24853_70021)"/>
<path opacity="0.75" d="M29.0051 35.9151L23.3711 33.9801L29.1421 26.9141L29.0051 35.9151Z" fill="url(#paint3_linear_24853_70021)"/>
<path d="M13.8101 33.311L18.4801 39.97L37.1591 17.096L34.0461 9.91797L13.8101 33.311Z" fill="url(#paint4_linear_24853_70021)"/>
<path d="M13.81 33.311L3 29.131L22.544 8.03003L34.046 9.91803L18.523 27.863L18.774 29.131H17.426L13.81 33.311Z" fill="url(#paint5_linear_24853_70021)"/>
<path d="M13.81 33.3111L18.48 39.9701L7.843 35.4301L3 29.1311" fill="url(#paint6_linear_24853_70021)"/>
<path opacity="0.75" d="M29.1421 26.914L34.8821 25.312L39.8031 23.95L32.8981 22.314L29.1421 26.914Z" fill="url(#paint7_linear_24853_70021)"/>
<path d="M17.426 29.131L18.523 27.863L17.062 27.769L17.426 29.131Z" fill="url(#paint8_linear_24853_70021)"/>
<path d="M34.29 28.308L34.882 30.971L35.458 28.281L34.29 28.308Z" fill="url(#paint9_linear_24853_70021)"/>
<path d="M18.553 20.564C18.595 20.601 18.63 20.643 18.655 20.688C18.632 20.642 18.595 20.602 18.553 20.564Z" fill="url(#paint10_linear_24853_70021)"/>
<path d="M17.802 21.001C17.802 20.751 18.089 20.548 18.444 20.548C18.483 20.548 18.516 20.559 18.553 20.564C18.435 20.459 18.261 20.387 18.057 20.387C17.702 20.387 17.415 20.59 17.415 20.84C17.415 21.063 17.647 21.24 17.948 21.277C17.861 21.201 17.802 21.107 17.802 21.001Z" fill="url(#paint11_linear_24853_70021)"/>
<path d="M17.802 21.0011C17.802 21.1071 17.862 21.2001 17.948 21.2771C17.985 21.2821 18.019 21.2931 18.057 21.2931C18.412 21.2931 18.699 21.0901 18.699 20.8401C18.699 20.7341 18.639 20.6411 18.553 20.5641C18.516 20.5591 18.482 20.5481 18.444 20.5481C18.089 20.5481 17.802 20.7511 17.802 21.0011Z" fill="url(#paint12_linear_24853_70021)"/>
<path d="M25.981 12.1641C26.023 12.2011 26.058 12.2431 26.083 12.2881C26.059 12.2411 26.023 12.2021 25.981 12.1641Z" fill="url(#paint13_linear_24853_70021)"/>
<path d="M25.229 12.6011C25.229 12.3511 25.516 12.1481 25.871 12.1481C25.91 12.1481 25.943 12.1591 25.98 12.1641C25.862 12.0591 25.688 11.9871 25.484 11.9871C25.129 11.9871 24.842 12.1901 24.842 12.4401C24.842 12.6631 25.074 12.8401 25.375 12.8771C25.289 12.8001 25.229 12.7071 25.229 12.6011Z" fill="url(#paint14_linear_24853_70021)"/>
<path d="M25.229 12.6009C25.229 12.7069 25.289 12.7999 25.375 12.8769C25.412 12.8819 25.446 12.8929 25.484 12.8929C25.839 12.8929 26.126 12.6899 26.126 12.4399C26.126 12.3339 26.066 12.2409 25.98 12.1639C25.943 12.1589 25.909 12.1479 25.871 12.1479C25.517 12.1479 25.229 12.3509 25.229 12.6009Z" fill="url(#paint15_linear_24853_70021)"/>
<path d="M28.7161 11.5869C28.7431 11.6109 28.7661 11.6379 28.7831 11.6669C28.7671 11.6379 28.7431 11.6119 28.7161 11.5869Z" fill="url(#paint16_linear_24853_70021)"/>
<path d="M28.2271 11.8719C28.2271 11.7089 28.4141 11.5769 28.6451 11.5769C28.6701 11.5769 28.6921 11.5839 28.7161 11.5869C28.6391 11.5189 28.5261 11.4719 28.3931 11.4719C28.1621 11.4719 27.9751 11.6039 27.9751 11.7669C27.9751 11.9119 28.1261 12.0269 28.3221 12.0519C28.2661 12.0019 28.2271 11.9409 28.2271 11.8719Z" fill="url(#paint17_linear_24853_70021)"/>
<path d="M28.2271 11.8719C28.2271 11.9409 28.2661 12.0019 28.3221 12.0519C28.3461 12.0549 28.3681 12.0619 28.3931 12.0619C28.6241 12.0619 28.8111 11.9299 28.8111 11.7669C28.8111 11.6979 28.7721 11.6369 28.7161 11.5869C28.6921 11.5839 28.6701 11.5769 28.6451 11.5769C28.4141 11.5769 28.2271 11.7089 28.2271 11.8719Z" fill="url(#paint18_linear_24853_70021)"/>
<path d="M24.323 9.73901C24.35 9.76301 24.373 9.79001 24.39 9.81901C24.374 9.78901 24.35 9.76301 24.323 9.73901Z" fill="url(#paint19_linear_24853_70021)"/>
<path d="M23.834 10.023C23.834 9.86002 24.021 9.72802 24.252 9.72802C24.277 9.72802 24.299 9.73502 24.323 9.73802C24.246 9.67002 24.133 9.62402 24 9.62402C23.769 9.62402 23.582 9.75602 23.582 9.91902C23.582 10.064 23.733 10.179 23.929 10.204C23.873 10.153 23.834 10.092 23.834 10.023Z" fill="url(#paint20_linear_24853_70021)"/>
<path d="M23.834 10.023C23.834 10.092 23.873 10.153 23.929 10.203C23.953 10.206 23.975 10.213 24 10.213C24.231 10.213 24.418 10.081 24.418 9.91803C24.418 9.84903 24.379 9.78803 24.323 9.73803C24.299 9.73503 24.277 9.72803 24.252 9.72803C24.021 9.72803 23.834 9.86003 23.834 10.023Z" fill="url(#paint21_linear_24853_70021)"/>
<path d="M15.653 21.477C15.653 21.33 15.822 21.21 16.031 21.21C16.054 21.21 16.074 21.216 16.095 21.219C16.026 21.157 15.923 21.115 15.803 21.115C15.594 21.115 15.425 21.234 15.425 21.382C15.425 21.513 15.562 21.617 15.739 21.64C15.688 21.594 15.653 21.539 15.653 21.477Z" fill="url(#paint22_linear_24853_70021)"/>
<path d="M15.6531 21.477C15.6531 21.539 15.6881 21.594 15.7391 21.64C15.7611 21.643 15.7811 21.649 15.8031 21.649C16.0121 21.649 16.1811 21.53 16.1811 21.382C16.1811 21.32 16.1461 21.265 16.0951 21.219C16.0731 21.216 16.0531 21.21 16.0311 21.21C15.8221 21.21 15.6531 21.329 15.6531 21.477Z" fill="url(#paint23_linear_24853_70021)"/>
<path opacity="0.75" d="M31.1779 31.5029C31.1779 31.5939 31.1509 31.6769 31.1089 31.7499C31.1499 31.6749 31.1779 31.5939 31.1779 31.5029Z" fill="url(#paint24_linear_24853_70021)"/>
<path opacity="0.75" d="M31.1101 31.2561C31.1521 31.3291 31.1791 31.4121 31.1791 31.5031C31.1781 31.4121 31.1501 31.3311 31.1101 31.2561Z" fill="url(#paint25_linear_24853_70021)"/>
<path d="M31.61 34.5341C31.435 34.5111 31.297 34.3671 31.297 34.1851C31.297 34.0031 31.434 33.8591 31.61 33.8361C31.665 33.8701 31.709 33.9171 31.744 33.9701C31.67 33.8511 31.545 33.7671 31.395 33.7671C31.165 33.7671 30.978 33.9541 30.978 34.1841C30.978 34.4141 31.165 34.6011 31.395 34.6011C31.545 34.6011 31.671 34.5171 31.744 34.3981C31.709 34.4531 31.665 34.5001 31.61 34.5341Z" fill="url(#paint26_linear_24853_70021)"/>
<path d="M31.6101 33.8362C31.4351 33.8592 31.2971 34.0032 31.2971 34.1852C31.2971 34.3672 31.4341 34.5112 31.6101 34.5342C31.7291 34.4602 31.8131 34.3352 31.8131 34.1852C31.8131 34.0352 31.7291 33.9092 31.6101 33.8362Z" fill="url(#paint27_linear_24853_70021)"/>
<path d="M33.0499 33.718C32.9219 33.701 32.8209 33.596 32.8209 33.463C32.8209 33.33 32.9209 33.225 33.0499 33.208C33.0899 33.233 33.1229 33.267 33.1479 33.306C33.0939 33.219 33.0019 33.158 32.8929 33.158C32.7249 33.158 32.5879 33.295 32.5879 33.463C32.5879 33.631 32.7249 33.768 32.8929 33.768C33.0029 33.768 33.0949 33.707 33.1479 33.62C33.1229 33.658 33.0899 33.693 33.0499 33.718Z" fill="url(#paint28_linear_24853_70021)"/>
<path d="M33.0498 33.207C32.9218 33.224 32.8208 33.329 32.8208 33.462C32.8208 33.595 32.9208 33.7 33.0498 33.717C33.1368 33.663 33.1978 33.571 33.1978 33.462C33.1978 33.353 33.1368 33.261 33.0498 33.207Z" fill="url(#paint29_linear_24853_70021)"/>
<defs>
<linearGradient id="paint0_linear_24853_70021" x1="34.7671" y1="31.5379" x2="45.0001" y2="31.5379" gradientUnits="userSpaceOnUse">
<stop stop-color="#CC5929"/>
<stop offset="1" stop-color="#A63F1B"/>
</linearGradient>
<linearGradient id="paint1_linear_24853_70021" x1="21.906" y1="23.042" x2="48.271" y2="28.178" gradientUnits="userSpaceOnUse">
<stop offset="0.016" stop-color="#E05F29"/>
<stop offset="1" stop-color="#FF7D4A"/>
</linearGradient>
<linearGradient id="paint2_linear_24853_70021" x1="20.8051" y1="29.002" x2="38.6091" y2="34.309" gradientUnits="userSpaceOnUse">
<stop stop-color="#782304"/>
<stop offset="0.979" stop-color="#B85025"/>
</linearGradient>
<linearGradient id="paint3_linear_24853_70021" x1="26.2571" y1="27.7401" x2="26.2571" y2="37.5091" gradientUnits="userSpaceOnUse">
<stop offset="0.011" stop-color="#571600"/>
<stop offset="0.265" stop-color="#5B1801" stop-opacity="0.743"/>
<stop offset="0.495" stop-color="#661F06" stop-opacity="0.51"/>
<stop offset="0.716" stop-color="#782B0D" stop-opacity="0.287"/>
<stop offset="0.929" stop-color="#923B17" stop-opacity="0.072"/>
<stop offset="1" stop-color="#9C411B" stop-opacity="0"/>
</linearGradient>
<linearGradient id="paint4_linear_24853_70021" x1="14.7731" y1="38.272" x2="38.3121" y2="10.281" gradientUnits="userSpaceOnUse">
<stop stop-color="#A63F1B"/>
<stop offset="1" stop-color="#CC5929"/>
</linearGradient>
<linearGradient id="paint5_linear_24853_70021" x1="7.285" y1="33.396" x2="29.626" y2="6.94603" gradientUnits="userSpaceOnUse">
<stop offset="0.016" stop-color="#E05F29"/>
<stop offset="1" stop-color="#FF7D4A"/>
</linearGradient>
<linearGradient id="paint6_linear_24853_70021" x1="11.014" y1="29.4421" x2="10.5" y2="39.0291" gradientUnits="userSpaceOnUse">
<stop offset="0.021" stop-color="#B85025"/>
<stop offset="1" stop-color="#782304"/>
</linearGradient>
<linearGradient id="paint7_linear_24853_70021" x1="27.7921" y1="25.607" x2="38.4491" y2="22.525" gradientUnits="userSpaceOnUse">
<stop offset="0.011" stop-color="#571600"/>
<stop offset="0.222" stop-color="#5D1A02" stop-opacity="0.786"/>
<stop offset="0.5" stop-color="#6D2409" stop-opacity="0.506"/>
<stop offset="0.813" stop-color="#883513" stop-opacity="0.19"/>
<stop offset="1" stop-color="#9C411B" stop-opacity="0"/>
</linearGradient>
<linearGradient id="paint8_linear_24853_70021" x1="16.976" y1="28.782" x2="18.055" y2="27.504" gradientUnits="userSpaceOnUse">
<stop stop-color="#A63F1B"/>
<stop offset="1" stop-color="#CC5929"/>
</linearGradient>
<linearGradient id="paint9_linear_24853_70021" x1="34.874" y1="31.03" x2="34.874" y2="26.907" gradientUnits="userSpaceOnUse">
<stop offset="0.016" stop-color="#E05F29"/>
<stop offset="1" stop-color="#FF7D4A"/>
</linearGradient>
<linearGradient id="paint10_linear_24853_70021" x1="18.595" y1="20.637" x2="18.613" y2="20.615" gradientUnits="userSpaceOnUse">
<stop stop-color="#A63F1B"/>
<stop offset="1" stop-color="#CC5929"/>
</linearGradient>
<linearGradient id="paint11_linear_24853_70021" x1="17.56" y1="21.141" x2="18.247" y2="20.329" gradientUnits="userSpaceOnUse">
<stop stop-color="#A63F1B"/>
<stop offset="1" stop-color="#CC5929"/>
</linearGradient>
<linearGradient id="paint12_linear_24853_70021" x1="17.673" y1="20.7261" x2="18.601" y2="21.0401" gradientUnits="userSpaceOnUse">
<stop offset="0.016" stop-color="#E05F29"/>
<stop offset="1" stop-color="#FF7D4A"/>
</linearGradient>
<linearGradient id="paint13_linear_24853_70021" x1="26.022" y1="12.2371" x2="26.041" y2="12.2151" gradientUnits="userSpaceOnUse">
<stop stop-color="#A63F1B"/>
<stop offset="1" stop-color="#CC5929"/>
</linearGradient>
<linearGradient id="paint14_linear_24853_70021" x1="24.988" y1="12.7411" x2="25.674" y2="11.9281" gradientUnits="userSpaceOnUse">
<stop stop-color="#A63F1B"/>
<stop offset="1" stop-color="#CC5929"/>
</linearGradient>
<linearGradient id="paint15_linear_24853_70021" x1="25.101" y1="12.3249" x2="26.028" y2="12.6389" gradientUnits="userSpaceOnUse">
<stop offset="0.016" stop-color="#E05F29"/>
<stop offset="1" stop-color="#FF7D4A"/>
</linearGradient>
<linearGradient id="paint16_linear_24853_70021" x1="28.7431" y1="11.6349" x2="28.7551" y2="11.6209" gradientUnits="userSpaceOnUse">
<stop stop-color="#A63F1B"/>
<stop offset="1" stop-color="#CC5929"/>
</linearGradient>
<linearGradient id="paint17_linear_24853_70021" x1="28.0701" y1="11.9629" x2="28.5171" y2="11.4339" gradientUnits="userSpaceOnUse">
<stop stop-color="#A63F1B"/>
<stop offset="1" stop-color="#CC5929"/>
</linearGradient>
<linearGradient id="paint18_linear_24853_70021" x1="28.1441" y1="11.6929" x2="28.7471" y2="11.8969" gradientUnits="userSpaceOnUse">
<stop offset="0.016" stop-color="#E05F29"/>
<stop offset="1" stop-color="#FF7D4A"/>
</linearGradient>
<linearGradient id="paint19_linear_24853_70021" x1="24.35" y1="9.78601" x2="24.362" y2="9.77201" gradientUnits="userSpaceOnUse">
<stop stop-color="#A63F1B"/>
<stop offset="1" stop-color="#CC5929"/>
</linearGradient>
<linearGradient id="paint20_linear_24853_70021" x1="23.677" y1="10.114" x2="24.123" y2="9.58502" gradientUnits="userSpaceOnUse">
<stop stop-color="#A63F1B"/>
<stop offset="1" stop-color="#CC5929"/>
</linearGradient>
<linearGradient id="paint21_linear_24853_70021" x1="23.75" y1="9.84403" x2="24.354" y2="10.048" gradientUnits="userSpaceOnUse">
<stop offset="0.016" stop-color="#E05F29"/>
<stop offset="1" stop-color="#FF7D4A"/>
</linearGradient>
<linearGradient id="paint22_linear_24853_70021" x1="15.51" y1="21.559" x2="15.915" y2="21.08" gradientUnits="userSpaceOnUse">
<stop stop-color="#A63F1B"/>
<stop offset="1" stop-color="#CC5929"/>
</linearGradient>
<linearGradient id="paint23_linear_24853_70021" x1="15.5771" y1="21.314" x2="16.1231" y2="21.499" gradientUnits="userSpaceOnUse">
<stop offset="0.016" stop-color="#E05F29"/>
<stop offset="1" stop-color="#FF7D4A"/>
</linearGradient>
<linearGradient id="paint24_linear_24853_70021" x1="31.0669" y1="31.7179" x2="31.2169" y2="31.5399" gradientUnits="userSpaceOnUse">
<stop offset="0.011" stop-color="#571600"/>
<stop offset="0.265" stop-color="#5B1801" stop-opacity="0.743"/>
<stop offset="0.495" stop-color="#661F06" stop-opacity="0.51"/>
<stop offset="0.716" stop-color="#782B0D" stop-opacity="0.287"/>
<stop offset="0.929" stop-color="#923B17" stop-opacity="0.072"/>
<stop offset="1" stop-color="#9C411B" stop-opacity="0"/>
</linearGradient>
<linearGradient id="paint25_linear_24853_70021" x1="31.0961" y1="31.4361" x2="31.1891" y2="31.3261" gradientUnits="userSpaceOnUse">
<stop offset="0.011" stop-color="#571600"/>
<stop offset="0.265" stop-color="#5B1801" stop-opacity="0.743"/>
<stop offset="0.495" stop-color="#661F06" stop-opacity="0.51"/>
<stop offset="0.716" stop-color="#782B0D" stop-opacity="0.287"/>
<stop offset="0.929" stop-color="#923B17" stop-opacity="0.072"/>
<stop offset="1" stop-color="#9C411B" stop-opacity="0"/>
</linearGradient>
<linearGradient id="paint26_linear_24853_70021" x1="30.782" y1="34.1021" x2="32.092" y2="34.2791" gradientUnits="userSpaceOnUse">
<stop stop-color="#541600"/>
<stop offset="1" stop-color="#CC5929"/>
</linearGradient>
<linearGradient id="paint27_linear_24853_70021" x1="30.6051" y1="34.0522" x2="32.1351" y2="34.2542" gradientUnits="userSpaceOnUse">
<stop stop-color="#A63F1B"/>
<stop offset="1" stop-color="#B85025"/>
</linearGradient>
<linearGradient id="paint28_linear_24853_70021" x1="32.4449" y1="33.402" x2="33.4029" y2="33.531" gradientUnits="userSpaceOnUse">
<stop stop-color="#541600"/>
<stop offset="1" stop-color="#CC5929"/>
</linearGradient>
<linearGradient id="paint29_linear_24853_70021" x1="32.3158" y1="33.366" x2="33.4338" y2="33.513" gradientUnits="userSpaceOnUse">
<stop stop-color="#A63F1B"/>
<stop offset="1" stop-color="#B85025"/>
</linearGradient>
</defs>
</svg>
