<svg width="48" height="48" viewBox="0 0 48 48" fill="none" xmlns="http://www.w3.org/2000/svg">
<path d="M42 10H41V32H42V10Z" fill="url(#paint0_linear_24853_69952)"/>
<path d="M1.09595 28.1909L5.08495 24.8079C5.08495 24.8079 6.14395 23.8119 7.44695 24.9359C9.29795 26.5319 11.7239 36.7759 11.7239 36.7759L5.05395 37.3499L1.09595 28.1909Z" fill="url(#paint1_linear_24853_69952)"/>
<path d="M40 37H7V43H40V37Z" fill="url(#paint2_linear_24853_69952)"/>
<path d="M26 19.2051H20V38.0001H26V19.2051Z" fill="url(#paint3_linear_24853_69952)"/>
<path d="M38.42 38.5H7.87804C7.62204 38.5 7.41504 38.707 7.41504 38.963V43H38.883V38.963C38.883 38.707 38.676 38.5 38.42 38.5Z" fill="url(#paint4_linear_24853_69952)"/>
<path d="M42 43H4V44V46H5.961C5.982 46 6 45.982 6 45.961V44.04C6 44.018 5.982 44 5.96 44H40V46H41.961C41.982 46 42 45.982 42 45.961V44.04C42 44.018 41.982 44 41.96 44H42V43Z" fill="url(#paint5_linear_24853_69952)"/>
<path d="M1.99988 28C-0.000117779 28 0.0508822 30.298 0.999882 31C2.37188 31.878 2.99988 33 2.99988 35.037V43H6.99988V35.133C6.99988 31 4.99988 28 1.99988 28Z" fill="url(#paint6_linear_24853_69952)"/>
<path d="M1.9979 28.061C-0.00209689 28.061 0.0509031 30.298 0.999903 31C2.3719 31.878 2.9999 33 2.9999 35.037V43H6.9359V35.133C6.9359 31 4.9319 28.061 1.9979 28.061Z" fill="url(#paint7_linear_24853_69952)"/>
<path d="M1.995 28.1221C-0.00500488 28.1221 0.0499952 30.2981 0.999995 31.0001C2.372 31.8781 3 33.0001 3 35.0371V43.0001H6.872V35.1331C6.872 31.0001 4.865 28.1221 1.995 28.1221Z" fill="url(#paint8_linear_24853_69952)"/>
<path d="M1.99308 28.1831C-0.00691795 28.1831 0.051082 30.2981 1.00008 31.0001C2.37208 31.8781 3.00008 33.0001 3.00008 35.0371V43.0001H6.80908V35.1331C6.80908 31.0001 4.79708 28.1831 1.99308 28.1831Z" fill="url(#paint9_linear_24853_69952)"/>
<path d="M1.98993 28.2439C-0.0100666 28.2439 0.0499334 30.2979 0.999933 30.9999C2.37193 31.8779 2.99993 32.9999 2.99993 35.0369V42.9999H6.74493V35.1329C6.74493 30.9999 4.72893 28.2439 1.98993 28.2439Z" fill="url(#paint10_linear_24853_69952)"/>
<path d="M1.98802 28.3049C-0.0119767 28.3049 0.0510232 30.2979 1.00002 30.9999C2.37202 31.8779 3.00002 32.9999 3.00002 35.0369V42.9999H6.68102V35.1329C6.68102 30.9999 4.66202 28.3049 1.98802 28.3049Z" fill="url(#paint11_linear_24853_69952)"/>
<path d="M1.98488 28.366C-0.0151219 28.366 0.0498781 30.298 0.999878 31C2.37188 31.878 2.99988 33 2.99988 35.037V43H6.61688V35.133C6.61688 31 4.59388 28.366 1.98488 28.366Z" fill="url(#paint12_linear_24853_69952)"/>
<path d="M1.98291 28.426C-0.0170934 28.426 0.0499066 30.297 0.999907 31C2.37191 31.878 2.99991 33 2.99991 35.037V43H6.55291V35.133C6.55291 31 4.52591 28.426 1.98291 28.426Z" fill="url(#paint13_linear_24853_69952)"/>
<path d="M1.981 28.4871C-0.0189995 28.4871 0.0510006 30.2971 1 31.0001C2.372 31.8781 3 33.0001 3 35.0371V43.0001H6.489V35.1331C6.489 31.0001 4.458 28.4871 1.981 28.4871Z" fill="url(#paint14_linear_24853_69952)"/>
<path d="M1.9781 28.5481C-0.0218956 28.5481 0.0501044 30.2981 1.0001 31.0001C2.3721 31.8781 3.0001 33.0001 3.0001 35.0371V43.0001H6.4261V35.1331C6.4261 31.0001 4.3911 28.5481 1.9781 28.5481Z" fill="url(#paint15_linear_24853_69952)"/>
<path d="M1.97596 28.6089C-0.0240427 28.6089 0.0509573 30.2979 0.999957 30.9999C2.37196 31.8779 2.99996 32.9999 2.99996 35.0369V42.9999H6.36196V35.1329C6.36196 30.9999 4.32296 28.6089 1.97596 28.6089Z" fill="url(#paint16_linear_24853_69952)"/>
<path d="M1.97306 28.6699C-0.0269355 28.6699 0.0500645 30.2979 1.00006 30.9999C2.37206 31.8779 3.00006 32.9999 3.00006 35.0369V42.9999H6.29806V35.1329C6.29806 30.9999 4.25506 28.6699 1.97306 28.6699Z" fill="url(#paint17_linear_24853_69952)"/>
<path d="M23 34H7.44702V37.594C7.44702 37.818 7.62902 38 7.85302 38H22.69C22.861 38 23 37.861 23 37.691V34Z" fill="url(#paint18_linear_24853_69952)"/>
<path d="M23 32.184C23 32.082 22.92 32 22.822 32C17.894 31.726 13.159 31.693 8.69602 32C8.56602 32 8.44602 32.074 8.38402 32.192C7.94602 32.849 7.63302 33.33 7.44702 34H23V32.184Z" fill="url(#paint19_linear_24853_69952)"/>
<path d="M45.2591 28.1909L41.2701 24.8079C41.2701 24.8079 40.2111 23.8119 38.9081 24.9359C37.0571 26.5319 34.6311 36.7759 34.6311 36.7759L41.3011 37.3499L45.2591 28.1909Z" fill="url(#paint20_linear_24853_69952)"/>
<path d="M38.4199 25.5109C38.4199 25.5109 38.7069 24.8409 39.8079 24.4819C40.9089 24.1229 42.5849 26.1579 42.5849 26.1579C42.5849 26.1579 39.0659 31.3999 39.2819 38.1259C37.7979 36.7799 37.6299 31.6869 37.6299 31.6869L38.4199 25.5109Z" fill="url(#paint21_linear_24853_69952)"/>
<path d="M44.355 28C46.355 28 46.304 30.298 45.355 31C43.983 31.878 43.355 33 43.355 35.037V43H39.355V35.133C39.355 31 41.355 28 44.355 28Z" fill="url(#paint22_linear_24853_69952)"/>
<path d="M44.3569 28.061C46.3569 28.061 46.3039 30.298 45.3549 31C43.9829 31.878 43.3549 33 43.3549 35.037V43H39.4189V35.133C39.4179 31 41.4219 28.061 44.3569 28.061Z" fill="url(#paint23_linear_24853_69952)"/>
<path d="M44.3589 28.1221C46.3589 28.1221 46.3039 30.2981 45.3539 31.0001C43.9819 31.8781 43.3539 33.0001 43.3539 35.0371V43.0001H39.4819V35.1331C39.4819 31.0001 41.4899 28.1221 44.3589 28.1221Z" fill="url(#paint24_linear_24853_69952)"/>
<path d="M44.3619 28.1831C46.3619 28.1831 46.3039 30.2981 45.3549 31.0001C43.9829 31.8781 43.3549 33.0001 43.3549 35.0371V43.0001H39.5459V35.1331C39.5459 31.0001 41.5579 28.1831 44.3619 28.1831Z" fill="url(#paint25_linear_24853_69952)"/>
<path d="M44.3639 28.2439C46.3639 28.2439 46.3039 30.2979 45.3539 30.9999C43.9819 31.8779 43.3539 32.9999 43.3539 35.0369V42.9999H39.6099V35.1329C39.6099 30.9999 41.6249 28.2439 44.3639 28.2439Z" fill="url(#paint26_linear_24853_69952)"/>
<path d="M44.3671 28.3049C46.3671 28.3049 46.3041 30.2979 45.3551 30.9999C43.9831 31.8779 43.3551 32.9999 43.3551 35.0369V42.9999H39.6741V35.1329C39.6741 30.9999 41.6931 28.3049 44.3671 28.3049Z" fill="url(#paint27_linear_24853_69952)"/>
<path d="M44.3691 28.366C46.3691 28.366 46.3041 30.298 45.3541 31C43.9821 31.878 43.3541 33 43.3541 35.037V43H39.7371V35.133C39.7381 31 41.7611 28.366 44.3691 28.366Z" fill="url(#paint28_linear_24853_69952)"/>
<path d="M44.371 28.426C46.371 28.426 46.304 30.297 45.354 31C43.982 31.878 43.354 33 43.354 35.037V43H39.801V35.133C39.801 31 41.828 28.426 44.371 28.426Z" fill="url(#paint29_linear_24853_69952)"/>
<path d="M44.374 28.4871C46.374 28.4871 46.304 30.2971 45.355 31.0001C43.983 31.8781 43.355 33.0001 43.355 35.0371V43.0001H39.866V35.1331C39.865 31.0001 41.896 28.4871 44.374 28.4871Z" fill="url(#paint30_linear_24853_69952)"/>
<path d="M44.376 28.5481C46.376 28.5481 46.304 30.2981 45.354 31.0001C43.982 31.8781 43.354 33.0001 43.354 35.0371V43.0001H39.928V35.1331C39.929 31.0001 41.964 28.5481 44.376 28.5481Z" fill="url(#paint31_linear_24853_69952)"/>
<path d="M44.3789 28.6089C46.3789 28.6089 46.3039 30.2979 45.3549 30.9999C43.9829 31.8779 43.3549 32.9999 43.3549 35.0369V42.9999H39.9929V35.1329C39.9929 30.9999 42.0319 28.6089 44.3789 28.6089Z" fill="url(#paint32_linear_24853_69952)"/>
<path d="M44.3809 28.6699C46.3809 28.6699 46.3039 30.2979 45.3539 30.9999C43.9819 31.8779 43.3539 32.9999 43.3539 35.0369V42.9999H40.0559V35.1329C40.0569 30.9999 42.0989 28.6699 44.3809 28.6699Z" fill="url(#paint33_linear_24853_69952)"/>
<path d="M23.355 34H38.908V37.594C38.908 37.818 38.726 38 38.502 38H23.664C23.493 38 23.355 37.861 23.355 37.691V34Z" fill="url(#paint34_linear_24853_69952)"/>
<path d="M23.355 32.184C23.355 32.083 23.435 32 23.533 32C28.461 31.726 33.196 31.693 37.659 32C37.789 32 37.909 32.074 37.971 32.192C38.409 32.849 38.722 33.329 38.908 34H23.355V32.184Z" fill="url(#paint35_linear_24853_69952)"/>
<path d="M37.351 30.6809L38.755 33.5589H7.44897V30.6809H37.351Z" fill="url(#paint36_linear_24853_69952)"/>
<path d="M8.41094 32H22.5279C22.7879 32 22.9999 31.788 22.9999 31.527V19.464C22.9999 19.206 22.7959 19.007 22.5389 18.989C17.6439 18.641 12.7129 18.665 7.47494 18.99C7.21394 19.006 7.00094 19.215 7.00394 19.476C7.05494 23.672 7.35894 27.716 7.93794 31.596C7.97294 31.829 8.17494 32 8.41094 32Z" fill="url(#paint37_linear_24853_69952)"/>
<path d="M8.7479 31.7441H22.1419C22.4429 31.7441 22.6869 31.5001 22.6869 31.1991V19.7871C22.6869 19.4901 22.4509 19.2591 22.1549 19.2401C17.5069 18.9411 12.8269 18.9611 7.8609 19.2411C7.5599 19.2581 7.3149 19.5001 7.3189 19.8011C7.3699 23.7721 7.6579 27.6021 8.2039 31.2771C8.2439 31.5461 8.4769 31.7441 8.7479 31.7441Z" fill="url(#paint38_linear_24853_69952)"/>
<path d="M9.08483 31.487H21.7568C22.0978 31.487 22.3738 31.211 22.3738 30.87V20.11C22.3738 19.774 22.1068 19.51 21.7718 19.49C17.3718 19.232 12.9418 19.249 8.24783 19.491C7.90783 19.509 7.62983 19.784 7.63483 20.125C7.69483 23.872 7.96783 27.485 8.46983 30.958C8.51483 31.263 8.77783 31.487 9.08483 31.487Z" fill="url(#paint39_linear_24853_69952)"/>
<path d="M9.42302 31.2311H21.373C21.754 31.2311 22.062 30.9231 22.062 30.5421V20.4341C22.062 20.0581 21.764 19.7621 21.389 19.7421C17.238 19.5181 13.056 19.5331 8.63502 19.7431C8.25502 19.7611 7.94502 20.0701 7.95202 20.4501C8.01402 23.9721 8.27102 27.3701 8.73802 30.6391C8.78502 30.9801 9.07902 31.2311 9.42302 31.2311Z" fill="url(#paint40_linear_24853_69952)"/>
<path d="M9.76001 30.974H20.987C21.407 30.974 21.748 30.6329 21.748 30.2129V20.757C21.748 20.342 21.418 20.013 21.004 19.993C17.102 19.8 13.168 19.812 9.02001 19.994C8.60001 20.012 8.25801 20.355 8.26601 20.775C8.32901 24.073 8.57001 27.2559 9.00301 30.32C9.05601 30.6969 9.38101 30.974 9.76001 30.974Z" fill="url(#paint41_linear_24853_69952)"/>
<path d="M10.098 30.7179H20.603C21.063 30.7179 21.436 30.3449 21.436 29.8849V21.0809C21.436 20.6269 21.075 20.2649 20.621 20.2449C16.968 20.0789 13.282 20.0889 9.40698 20.2459C8.94698 20.2649 8.57198 20.6409 8.58198 21.1009C8.64398 24.1739 8.86898 27.1429 9.26898 30.0019C9.32598 30.4139 9.68198 30.7179 10.098 30.7179Z" fill="url(#paint42_linear_24853_69952)"/>
<path d="M10.435 30.4619H20.217C20.717 30.4619 21.122 30.0569 21.122 29.5569V21.4049C21.122 20.9109 20.73 20.5169 20.237 20.4969C16.833 20.3559 13.395 20.3639 9.79197 20.4979C9.29197 20.5169 8.88497 20.9269 8.89597 21.4269C8.95797 24.2759 9.16597 27.0289 9.53397 29.6839C9.59597 30.1309 9.98297 30.4619 10.435 30.4619Z" fill="url(#paint43_linear_24853_69952)"/>
<path d="M10.7719 30.2049H19.8319C20.3719 30.2049 20.8099 29.7669 20.8099 29.2269V21.7269C20.8099 21.1939 20.3859 20.7659 19.8539 20.7459C16.6989 20.6279 13.5079 20.6349 10.1789 20.7469C9.63991 20.7669 9.19991 21.2109 9.21191 21.7509C9.27191 24.3759 9.46491 26.9139 9.80091 29.3649C9.86691 29.8479 10.2849 30.2049 10.7719 30.2049Z" fill="url(#paint44_linear_24853_69952)"/>
<path d="M11.1099 29.9491H19.4479C20.0279 29.9491 20.4979 29.4791 20.4979 28.8991V22.0511C20.4979 21.4791 20.0429 21.0171 19.4709 20.9981C16.5649 20.9011 13.6219 20.9071 10.5659 20.9991C9.98689 21.0161 9.51389 21.4961 9.52789 22.0751C9.58589 24.4751 9.76289 26.7991 10.0669 29.0451C10.1369 29.5651 10.5859 29.9491 11.1099 29.9491Z" fill="url(#paint45_linear_24853_69952)"/>
<path d="M11.4469 29.693H19.0619C19.6819 29.693 20.1839 29.191 20.1839 28.571V22.375C20.1839 21.764 19.6979 21.267 19.0869 21.25C16.4299 21.174 13.7349 21.178 10.9519 21.251C10.3329 21.267 9.8269 21.782 9.8429 22.401C9.8989 24.577 10.0599 26.686 10.3329 28.727C10.4069 29.282 10.8869 29.693 11.4469 29.693Z" fill="url(#paint46_linear_24853_69952)"/>
<path d="M11.7849 29.436H18.6779C19.3369 29.436 19.8719 28.901 19.8719 28.242V22.698C19.8719 22.047 19.3539 21.516 18.7039 21.501C16.2969 21.444 13.8489 21.447 11.3389 21.502C10.6799 21.516 10.1399 22.067 10.1589 22.726C10.2099 24.677 10.3549 26.573 10.5989 28.408C10.6749 28.999 11.1889 29.436 11.7849 29.436Z" fill="url(#paint47_linear_24853_69952)"/>
<path d="M12.1219 29.18H18.2919C18.9909 29.18 19.5579 28.613 19.5579 27.914V23.022C19.5579 22.332 19.0089 21.765 18.3189 21.752C16.1609 21.714 13.9599 21.716 11.7229 21.753C11.0239 21.765 10.4519 22.352 10.4719 23.051C10.5229 24.778 10.6519 26.458 10.8629 28.089C10.9459 28.716 11.4899 29.18 12.1219 29.18Z" fill="#842D34"/>
<path d="M37.7671 32H23.7501C23.5251 32 23.3401 31.816 23.3401 31.59V19.437C23.3401 19.2 23.5231 19.003 23.7601 18.988C28.7631 18.668 34.0231 18.555 38.8061 18.958C39.1171 18.984 39.3571 19.251 39.3541 19.563C39.3181 23.563 38.6861 27.53 38.3851 31.428C38.3591 31.752 38.0921 32 37.7671 32Z" fill="url(#paint48_linear_24853_69952)"/>
<path d="M37.4361 31.69H24.1491C23.8921 31.69 23.6821 31.48 23.6821 31.223V19.762C23.6821 19.495 23.8911 19.275 24.1581 19.26C28.7081 18.998 34.0521 18.896 38.4021 19.233C38.7391 19.259 38.9991 19.544 38.9941 19.882C38.9481 23.518 38.3651 27.537 38.0911 31.081C38.0661 31.425 37.7811 31.69 37.4361 31.69Z" fill="url(#paint49_linear_24853_69952)"/>
<path d="M37.1042 31.38H24.5482C24.2592 31.38 24.0242 31.145 24.0242 30.856V20.088C24.0242 19.79 24.2592 19.548 24.5562 19.532C28.6522 19.316 34.0812 19.227 37.9982 19.507C38.3602 19.533 38.6402 19.837 38.6352 20.201C38.5842 23.473 38.0342 27.543 37.7982 30.734C37.7712 31.099 37.4702 31.38 37.1042 31.38Z" fill="url(#paint50_linear_24853_69952)"/>
<path d="M36.7732 31.071H24.9482C24.6282 31.071 24.3672 30.81 24.3672 30.49V20.415C24.3672 20.086 24.6272 19.821 24.9552 19.805C28.5972 19.628 34.1122 19.551 37.5952 19.783C37.9832 19.809 38.2832 20.132 38.2762 20.521C38.2232 23.429 37.7112 27.551 37.5052 30.387C37.4772 30.772 37.1602 31.071 36.7732 31.071Z" fill="url(#paint51_linear_24853_69952)"/>
<path d="M36.442 30.7609H25.347C24.995 30.7609 24.709 30.4749 24.709 30.1229V20.7399C24.709 20.3809 24.995 20.0929 25.353 20.0769C28.54 19.9329 34.143 19.8679 37.191 20.0579C37.605 20.0839 37.925 20.4259 37.917 20.8399C37.864 23.3849 37.389 27.5579 37.212 30.0399C37.183 30.4459 36.849 30.7609 36.442 30.7609Z" fill="url(#paint52_linear_24853_69952)"/>
<path d="M36.111 30.451H25.746C25.362 30.451 25.051 30.139 25.051 29.756V21.066C25.051 20.676 25.363 20.366 25.752 20.349C28.484 20.233 34.175 20.18 36.788 20.333C37.228 20.359 37.568 20.719 37.558 21.16C37.508 23.341 37.068 27.566 36.919 29.693C36.888 30.119 36.538 30.451 36.111 30.451Z" fill="url(#paint53_linear_24853_69952)"/>
<path d="M35.7791 30.141H26.1451C25.7301 30.141 25.3931 29.804 25.3931 29.389V21.392C25.3931 20.972 25.7301 20.639 26.1501 20.622C28.4271 20.531 34.2061 20.489 36.3841 20.608C36.8491 20.634 37.2101 21.013 37.1981 21.479C37.1531 23.297 36.7481 27.573 36.6251 29.346C36.5941 29.793 36.2281 30.141 35.7791 30.141Z" fill="url(#paint54_linear_24853_69952)"/>
<path d="M35.4481 29.8309H26.5451C26.0981 29.8309 25.7351 29.4679 25.7351 29.0209V21.7159C25.7351 21.2649 26.0981 20.9089 26.5481 20.8919C28.3701 20.8229 34.2381 20.7909 35.9811 20.8809C36.4721 20.9059 36.8531 21.3049 36.8401 21.7969C36.8021 23.2509 36.4301 27.5789 36.3331 28.9969C36.3001 29.4659 35.9171 29.8309 35.4481 29.8309Z" fill="url(#paint55_linear_24853_69952)"/>
<path d="M35.1171 29.522H26.9441C26.4661 29.522 26.0771 29.1341 26.0771 28.6551V22.043C26.0771 21.562 26.4651 21.183 26.9461 21.166C28.3121 21.117 34.2691 21.0941 35.5771 21.1581C36.0941 21.1831 36.4951 21.601 36.4801 22.118C36.4501 23.208 36.1101 27.588 36.0381 28.6521C36.0061 29.14 35.6061 29.522 35.1171 29.522Z" fill="url(#paint56_linear_24853_69952)"/>
<path d="M34.7852 29.212H27.3432C26.8332 29.212 26.4192 28.798 26.4192 28.288V22.369C26.4192 21.857 26.8332 21.456 27.3452 21.438C28.2562 21.406 34.3022 21.392 35.1742 21.433C35.7172 21.458 36.1372 21.894 36.1222 22.438C36.1012 23.165 35.7942 27.596 35.7462 28.305C35.7122 28.813 35.2962 29.212 34.7852 29.212Z" fill="url(#paint57_linear_24853_69952)"/>
<path d="M34.454 28.9021H27.742C27.2 28.9021 26.761 28.4631 26.761 27.9211V22.6941C26.761 22.1511 27.2 21.7281 27.743 21.7101C28.198 21.6951 34.334 21.6881 34.77 21.7071C35.339 21.7321 35.779 22.1871 35.762 22.7561C35.751 23.1191 35.476 27.6021 35.452 27.9571C35.417 28.4871 34.985 28.9021 34.454 28.9021Z" fill="url(#paint58_linear_24853_69952)"/>
<path d="M34.123 28.5919H28.142C27.569 28.5919 27.104 28.1269 27.104 27.5539V23.0199C27.104 22.4469 27.569 21.9819 28.142 21.9819H34.367C34.962 21.9819 35.435 22.4809 35.403 23.0759L35.159 27.6099C35.13 28.1609 34.674 28.5919 34.123 28.5919Z" fill="#842D34"/>
<path d="M25.2071 19.2151H21.0691V38.0831H25.2071V19.2151Z" fill="url(#paint59_linear_24853_69952)"/>
<path d="M47 13H36L37 3H46L47 13Z" fill="url(#paint60_radial_24853_69952)"/>
<path d="M47 12H36V13H47V12Z" fill="url(#paint61_radial_24853_69952)"/>
<path d="M46.1109 3H36.8879V4H46.1109V3Z" fill="url(#paint62_radial_24853_69952)"/>
<defs>
<linearGradient id="paint0_linear_24853_69952" x1="41.373" y1="21" x2="41.709" y2="21" gradientUnits="userSpaceOnUse">
<stop stop-color="#DEBF84"/>
<stop offset="1" stop-color="#A06C25"/>
</linearGradient>
<linearGradient id="paint1_linear_24853_69952" x1="7.91495" y1="33.5099" x2="3.33295" y2="26.8299" gradientUnits="userSpaceOnUse">
<stop offset="0.036" stop-color="#310E12"/>
<stop offset="0.495" stop-color="#53181B"/>
<stop offset="0.587" stop-color="#561C1F"/>
<stop offset="0.68" stop-color="#61282B"/>
<stop offset="0.772" stop-color="#733B3F"/>
<stop offset="0.864" stop-color="#8B575B"/>
<stop offset="0.956" stop-color="#AB7A7F"/>
<stop offset="1" stop-color="#BC8E93"/>
</linearGradient>
<linearGradient id="paint2_linear_24853_69952" x1="23.501" y1="39.763" x2="23.488" y2="44.378" gradientUnits="userSpaceOnUse">
<stop stop-color="#300E12"/>
<stop offset="1" stop-color="#300E12"/>
</linearGradient>
<linearGradient id="paint3_linear_24853_69952" x1="23.002" y1="27.8711" x2="22.962" y2="42.1221" gradientUnits="userSpaceOnUse">
<stop stop-color="#300E12"/>
<stop offset="1" stop-color="#300E12"/>
</linearGradient>
<linearGradient id="paint4_linear_24853_69952" x1="23.155" y1="38.853" x2="23.151" y2="40.282" gradientUnits="userSpaceOnUse">
<stop stop-color="#71363D"/>
<stop offset="1" stop-color="#53181B"/>
</linearGradient>
<linearGradient id="paint5_linear_24853_69952" x1="22.4" y1="39.877" x2="24.354" y2="54.928" gradientUnits="userSpaceOnUse">
<stop offset="0.001" stop-color="#77451F"/>
<stop offset="1" stop-color="#D6A061"/>
</linearGradient>
<linearGradient id="paint6_linear_24853_69952" x1="-0.822118" y1="29.826" x2="4.62988" y2="36.914" gradientUnits="userSpaceOnUse">
<stop stop-color="#BC8E93"/>
<stop offset="0.044" stop-color="#AB7A7F"/>
<stop offset="0.136" stop-color="#8B575B"/>
<stop offset="0.228" stop-color="#733B3F"/>
<stop offset="0.32" stop-color="#61282B"/>
<stop offset="0.413" stop-color="#561C1F"/>
<stop offset="0.505" stop-color="#53181B"/>
<stop offset="0.964" stop-color="#310E12"/>
</linearGradient>
<linearGradient id="paint7_linear_24853_69952" x1="-1.0581" y1="29.572" x2="4.6249" y2="36.962" gradientUnits="userSpaceOnUse">
<stop stop-color="#BC8E93"/>
<stop offset="0.014" stop-color="#B7888D"/>
<stop offset="0.118" stop-color="#956266"/>
<stop offset="0.221" stop-color="#7A4448"/>
<stop offset="0.321" stop-color="#672E32"/>
<stop offset="0.417" stop-color="#5C2124"/>
<stop offset="0.505" stop-color="#581D20"/>
<stop offset="0.964" stop-color="#340F13"/>
<stop offset="1" stop-color="#340F13"/>
</linearGradient>
<linearGradient id="paint8_linear_24853_69952" x1="-1.292" y1="29.3211" x2="4.621" y2="37.0091" gradientUnits="userSpaceOnUse">
<stop stop-color="#BC8E93"/>
<stop offset="0.091" stop-color="#A06F73"/>
<stop offset="0.207" stop-color="#834E52"/>
<stop offset="0.318" stop-color="#6D363A"/>
<stop offset="0.42" stop-color="#60282B"/>
<stop offset="0.505" stop-color="#5C2326"/>
<stop offset="0.964" stop-color="#381114"/>
<stop offset="1" stop-color="#371014"/>
</linearGradient>
<linearGradient id="paint9_linear_24853_69952" x1="-1.52292" y1="29.0741" x2="4.61608" y2="37.0561" gradientUnits="userSpaceOnUse">
<stop stop-color="#BC8E93"/>
<stop offset="0.056" stop-color="#AC7C81"/>
<stop offset="0.188" stop-color="#8C585C"/>
<stop offset="0.312" stop-color="#743E41"/>
<stop offset="0.421" stop-color="#662E31"/>
<stop offset="0.505" stop-color="#61282B"/>
<stop offset="0.964" stop-color="#3B1216"/>
<stop offset="1" stop-color="#3A1114"/>
</linearGradient>
<linearGradient id="paint10_linear_24853_69952" x1="-1.75207" y1="28.8289" x2="4.61093" y2="37.1029" gradientUnits="userSpaceOnUse">
<stop stop-color="#BC8E93"/>
<stop offset="0.004" stop-color="#BB8D92"/>
<stop offset="0.16" stop-color="#966468"/>
<stop offset="0.301" stop-color="#7C4649"/>
<stop offset="0.421" stop-color="#6C3337"/>
<stop offset="0.505" stop-color="#662D30"/>
<stop offset="0.964" stop-color="#3F1317"/>
<stop offset="1" stop-color="#3D1215"/>
</linearGradient>
<linearGradient id="paint11_linear_24853_69952" x1="-1.97898" y1="28.5869" x2="4.60502" y2="37.1489" gradientUnits="userSpaceOnUse">
<stop stop-color="#BC8E93"/>
<stop offset="0.116" stop-color="#A37276"/>
<stop offset="0.281" stop-color="#854F53"/>
<stop offset="0.417" stop-color="#723A3E"/>
<stop offset="0.505" stop-color="#6B3236"/>
<stop offset="0.964" stop-color="#421418"/>
<stop offset="1" stop-color="#401316"/>
</linearGradient>
<linearGradient id="paint12_linear_24853_69952" x1="-2.20412" y1="28.348" x2="4.59988" y2="37.194" gradientUnits="userSpaceOnUse">
<stop stop-color="#BC8E93"/>
<stop offset="0.05" stop-color="#B28388"/>
<stop offset="0.251" stop-color="#8E5A5E"/>
<stop offset="0.41" stop-color="#774144"/>
<stop offset="0.505" stop-color="#6F383B"/>
<stop offset="0.964" stop-color="#461619"/>
<stop offset="1" stop-color="#441317"/>
</linearGradient>
<linearGradient id="paint13_linear_24853_69952" x1="-2.42609" y1="28.112" x2="4.59291" y2="37.239" gradientUnits="userSpaceOnUse">
<stop stop-color="#BC8E93"/>
<stop offset="0.199" stop-color="#9A686D"/>
<stop offset="0.396" stop-color="#7F494D"/>
<stop offset="0.505" stop-color="#743D41"/>
<stop offset="0.964" stop-color="#49171A"/>
<stop offset="1" stop-color="#471418"/>
</linearGradient>
<linearGradient id="paint14_linear_24853_69952" x1="-2.647" y1="27.8781" x2="4.587" y2="37.2841" gradientUnits="userSpaceOnUse">
<stop stop-color="#BC8E93"/>
<stop offset="0.108" stop-color="#AB7B80"/>
<stop offset="0.37" stop-color="#875256"/>
<stop offset="0.505" stop-color="#794246"/>
<stop offset="0.964" stop-color="#4D181B"/>
<stop offset="1" stop-color="#4A1519"/>
</linearGradient>
<linearGradient id="paint15_linear_24853_69952" x1="-2.8649" y1="27.6481" x2="4.5801" y2="37.3281" gradientUnits="userSpaceOnUse">
<stop stop-color="#BC8E93"/>
<stop offset="0.315" stop-color="#935F63"/>
<stop offset="0.505" stop-color="#7E474B"/>
<stop offset="0.964" stop-color="#50191D"/>
<stop offset="1" stop-color="#4D1619"/>
</linearGradient>
<linearGradient id="paint16_linear_24853_69952" x1="-3.08004" y1="27.4199" x2="4.57396" y2="37.3719" gradientUnits="userSpaceOnUse">
<stop stop-color="#BC8E93"/>
<stop offset="0.134" stop-color="#AC7C81"/>
<stop offset="0.505" stop-color="#824D51"/>
<stop offset="0.964" stop-color="#541B1E"/>
<stop offset="1" stop-color="#50171A"/>
</linearGradient>
<linearGradient id="paint17_linear_24853_69952" x1="-3.29394" y1="27.1949" x2="4.56606" y2="37.4159" gradientUnits="userSpaceOnUse">
<stop stop-color="#BC8E93"/>
<stop offset="1" stop-color="#53181B"/>
</linearGradient>
<linearGradient id="paint18_linear_24853_69952" x1="15.229" y1="36.766" x2="15.21" y2="33.574" gradientUnits="userSpaceOnUse">
<stop offset="0.531" stop-color="#682128"/>
<stop offset="1" stop-color="#9B646C"/>
</linearGradient>
<linearGradient id="paint19_linear_24853_69952" x1="15.235" y1="31.999" x2="15.221" y2="34.404" gradientUnits="userSpaceOnUse">
<stop offset="0.001" stop-color="#53181B"/>
<stop offset="1" stop-color="#9A626A"/>
</linearGradient>
<linearGradient id="paint20_linear_24853_69952" x1="42.6101" y1="28.4049" x2="36.0341" y2="35.5719" gradientUnits="userSpaceOnUse">
<stop stop-color="#8B4248"/>
<stop offset="0.331" stop-color="#632428"/>
<stop offset="0.505" stop-color="#53181B"/>
<stop offset="0.964" stop-color="#310E12"/>
</linearGradient>
<linearGradient id="paint21_linear_24853_69952" x1="38.9129" y1="31.2989" x2="39.9769" y2="31.2749" gradientUnits="userSpaceOnUse">
<stop stop-color="#300E12" stop-opacity="0.6"/>
<stop offset="0.947" stop-color="#5C1C20" stop-opacity="0"/>
</linearGradient>
<linearGradient id="paint22_linear_24853_69952" x1="44.758" y1="35.051" x2="36.329" y2="38.037" gradientUnits="userSpaceOnUse">
<stop stop-color="#8B4248"/>
<stop offset="0.331" stop-color="#632428"/>
<stop offset="0.505" stop-color="#53181B"/>
<stop offset="0.964" stop-color="#310E12"/>
</linearGradient>
<linearGradient id="paint23_linear_24853_69952" x1="45.6009" y1="34.637" x2="36.5299" y2="38.395" gradientUnits="userSpaceOnUse">
<stop stop-color="#8F494F"/>
<stop offset="0.316" stop-color="#692B2F"/>
<stop offset="0.505" stop-color="#581D20"/>
<stop offset="0.964" stop-color="#340F13"/>
<stop offset="1" stop-color="#340F13"/>
</linearGradient>
<linearGradient id="paint24_linear_24853_69952" x1="46.4549" y1="34.1041" x2="36.7879" y2="38.7141" gradientUnits="userSpaceOnUse">
<stop stop-color="#945056"/>
<stop offset="0.304" stop-color="#6F3337"/>
<stop offset="0.505" stop-color="#5C2326"/>
<stop offset="0.964" stop-color="#381114"/>
<stop offset="1" stop-color="#371014"/>
</linearGradient>
<linearGradient id="paint25_linear_24853_69952" x1="47.3009" y1="33.4501" x2="37.0969" y2="38.9881" gradientUnits="userSpaceOnUse">
<stop stop-color="#98575C"/>
<stop offset="0.282" stop-color="#773B3E"/>
<stop offset="0.505" stop-color="#61282B"/>
<stop offset="0.964" stop-color="#3B1216"/>
<stop offset="1" stop-color="#3A1114"/>
</linearGradient>
<linearGradient id="paint26_linear_24853_69952" x1="48.1209" y1="32.6769" x2="37.4489" y2="39.2129" gradientUnits="userSpaceOnUse">
<stop stop-color="#9D5E63"/>
<stop offset="0.257" stop-color="#7F4347"/>
<stop offset="0.505" stop-color="#662D30"/>
<stop offset="0.964" stop-color="#3F1317"/>
<stop offset="1" stop-color="#3D1215"/>
</linearGradient>
<linearGradient id="paint27_linear_24853_69952" x1="48.8981" y1="31.7879" x2="37.8351" y2="39.3839" gradientUnits="userSpaceOnUse">
<stop stop-color="#A1656A"/>
<stop offset="0.219" stop-color="#884D52"/>
<stop offset="0.505" stop-color="#6B3236"/>
<stop offset="0.964" stop-color="#421418"/>
<stop offset="1" stop-color="#401316"/>
</linearGradient>
<linearGradient id="paint28_linear_24853_69952" x1="49.6121" y1="30.789" x2="38.2481" y2="39.499" gradientUnits="userSpaceOnUse">
<stop stop-color="#A66B71"/>
<stop offset="0.176" stop-color="#92585D"/>
<stop offset="0.505" stop-color="#6F383B"/>
<stop offset="0.964" stop-color="#461619"/>
<stop offset="1" stop-color="#441317"/>
</linearGradient>
<linearGradient id="paint29_linear_24853_69952" x1="50.248" y1="29.688" x2="38.679" y2="39.556" gradientUnits="userSpaceOnUse">
<stop stop-color="#AA7278"/>
<stop offset="0.103" stop-color="#9E676C"/>
<stop offset="0.505" stop-color="#743D41"/>
<stop offset="0.964" stop-color="#49171A"/>
<stop offset="1" stop-color="#471418"/>
</linearGradient>
<linearGradient id="paint30_linear_24853_69952" x1="50.79" y1="28.4961" x2="39.119" y2="39.5551" gradientUnits="userSpaceOnUse">
<stop stop-color="#AF797F"/>
<stop offset="0.505" stop-color="#794246"/>
<stop offset="0.964" stop-color="#4D181B"/>
<stop offset="1" stop-color="#4A1519"/>
</linearGradient>
<linearGradient id="paint31_linear_24853_69952" x1="51.224" y1="27.2251" x2="39.558" y2="39.4961" gradientUnits="userSpaceOnUse">
<stop stop-color="#B38085"/>
<stop offset="0.505" stop-color="#7E474B"/>
<stop offset="0.964" stop-color="#50191D"/>
<stop offset="1" stop-color="#4D1619"/>
</linearGradient>
<linearGradient id="paint32_linear_24853_69952" x1="51.5369" y1="25.8889" x2="39.9909" y2="39.3809" gradientUnits="userSpaceOnUse">
<stop stop-color="#B8878C"/>
<stop offset="0.505" stop-color="#824D51"/>
<stop offset="0.964" stop-color="#541B1E"/>
<stop offset="1" stop-color="#50171A"/>
</linearGradient>
<linearGradient id="paint33_linear_24853_69952" x1="51.7189" y1="24.5049" x2="40.4069" y2="39.2129" gradientUnits="userSpaceOnUse">
<stop stop-color="#BC8E93"/>
<stop offset="1" stop-color="#53181B"/>
</linearGradient>
<linearGradient id="paint34_linear_24853_69952" x1="31.126" y1="36.798" x2="31.145" y2="33.606" gradientUnits="userSpaceOnUse">
<stop offset="0.531" stop-color="#682128"/>
<stop offset="1" stop-color="#9B646C"/>
</linearGradient>
<linearGradient id="paint35_linear_24853_69952" x1="31.12" y1="31.999" x2="31.134" y2="34.404" gradientUnits="userSpaceOnUse">
<stop offset="0.001" stop-color="#53181B"/>
<stop offset="1" stop-color="#9A626A"/>
</linearGradient>
<linearGradient id="paint36_linear_24853_69952" x1="23.102" y1="33.5599" x2="23.102" y2="30.6819" gradientUnits="userSpaceOnUse">
<stop offset="0.053" stop-color="#5C1C20" stop-opacity="0"/>
<stop offset="0.503" stop-color="#300E12" stop-opacity="0.6"/>
<stop offset="1" stop-color="#571A1D" stop-opacity="0"/>
</linearGradient>
<linearGradient id="paint37_linear_24853_69952" x1="18.6849" y1="28.728" x2="7.39994" y2="17.396" gradientUnits="userSpaceOnUse">
<stop offset="0.001" stop-color="#53181B"/>
<stop offset="1" stop-color="#BC8E93"/>
</linearGradient>
<linearGradient id="paint38_linear_24853_69952" x1="18.5259" y1="28.5891" x2="7.7249" y2="17.7431" gradientUnits="userSpaceOnUse">
<stop offset="0.001" stop-color="#571A1D"/>
<stop offset="1" stop-color="#B7858A"/>
</linearGradient>
<linearGradient id="paint39_linear_24853_69952" x1="18.3668" y1="28.451" x2="8.04983" y2="18.091" gradientUnits="userSpaceOnUse">
<stop offset="0.001" stop-color="#5C1C20"/>
<stop offset="1" stop-color="#B27C82"/>
</linearGradient>
<linearGradient id="paint40_linear_24853_69952" x1="18.207" y1="28.3121" x2="8.37502" y2="18.4391" gradientUnits="userSpaceOnUse">
<stop offset="0.001" stop-color="#601E22"/>
<stop offset="1" stop-color="#AD7479"/>
</linearGradient>
<linearGradient id="paint41_linear_24853_69952" x1="18.048" y1="28.174" x2="8.70001" y2="18.786" gradientUnits="userSpaceOnUse">
<stop offset="0.001" stop-color="#652024"/>
<stop offset="1" stop-color="#A86B70"/>
</linearGradient>
<linearGradient id="paint42_linear_24853_69952" x1="17.889" y1="28.0349" x2="9.02498" y2="19.1339" gradientUnits="userSpaceOnUse">
<stop offset="0.001" stop-color="#692226"/>
<stop offset="1" stop-color="#A36268"/>
</linearGradient>
<linearGradient id="paint43_linear_24853_69952" x1="17.73" y1="27.8959" x2="9.34997" y2="19.4809" gradientUnits="userSpaceOnUse">
<stop offset="0.001" stop-color="#6E2329"/>
<stop offset="1" stop-color="#9D595F"/>
</linearGradient>
<linearGradient id="paint44_linear_24853_69952" x1="17.5699" y1="27.7569" x2="9.67391" y2="19.8289" gradientUnits="userSpaceOnUse">
<stop offset="0.001" stop-color="#72252B"/>
<stop offset="1" stop-color="#985057"/>
</linearGradient>
<linearGradient id="paint45_linear_24853_69952" x1="17.4109" y1="27.6191" x2="9.99889" y2="20.1761" gradientUnits="userSpaceOnUse">
<stop offset="0.001" stop-color="#77272D"/>
<stop offset="1" stop-color="#93474E"/>
</linearGradient>
<linearGradient id="paint46_linear_24853_69952" x1="17.2519" y1="27.48" x2="10.3239" y2="20.523" gradientUnits="userSpaceOnUse">
<stop offset="0.001" stop-color="#7B292F"/>
<stop offset="1" stop-color="#8E3F45"/>
</linearGradient>
<linearGradient id="paint47_linear_24853_69952" x1="17.0919" y1="27.341" x2="10.6479" y2="20.87" gradientUnits="userSpaceOnUse">
<stop offset="0.001" stop-color="#802B32"/>
<stop offset="1" stop-color="#89363D"/>
</linearGradient>
<linearGradient id="paint48_linear_24853_69952" x1="33.1971" y1="27.955" x2="23.3081" y2="15.049" gradientUnits="userSpaceOnUse">
<stop offset="0.001" stop-color="#53181B"/>
<stop offset="1" stop-color="#BC8E93"/>
</linearGradient>
<linearGradient id="paint49_linear_24853_69952" x1="33.1081" y1="27.828" x2="23.6791" y2="15.522" gradientUnits="userSpaceOnUse">
<stop offset="0.001" stop-color="#571A1D"/>
<stop offset="1" stop-color="#B7858A"/>
</linearGradient>
<linearGradient id="paint50_linear_24853_69952" x1="33.0192" y1="27.7" x2="24.0502" y2="15.995" gradientUnits="userSpaceOnUse">
<stop offset="0.001" stop-color="#5C1C20"/>
<stop offset="1" stop-color="#B27C82"/>
</linearGradient>
<linearGradient id="paint51_linear_24853_69952" x1="32.9302" y1="27.573" x2="24.4212" y2="16.468" gradientUnits="userSpaceOnUse">
<stop offset="0.001" stop-color="#601E22"/>
<stop offset="1" stop-color="#AD7479"/>
</linearGradient>
<linearGradient id="paint52_linear_24853_69952" x1="32.841" y1="27.4459" x2="24.792" y2="16.9409" gradientUnits="userSpaceOnUse">
<stop offset="0.001" stop-color="#652024"/>
<stop offset="1" stop-color="#A86B70"/>
</linearGradient>
<linearGradient id="paint53_linear_24853_69952" x1="32.752" y1="27.318" x2="25.163" y2="17.414" gradientUnits="userSpaceOnUse">
<stop offset="0.001" stop-color="#692226"/>
<stop offset="1" stop-color="#A36268"/>
</linearGradient>
<linearGradient id="paint54_linear_24853_69952" x1="32.6631" y1="27.191" x2="25.5341" y2="17.886" gradientUnits="userSpaceOnUse">
<stop offset="0.001" stop-color="#6E2329"/>
<stop offset="1" stop-color="#9D595F"/>
</linearGradient>
<linearGradient id="paint55_linear_24853_69952" x1="32.5741" y1="27.0639" x2="25.9051" y2="18.3589" gradientUnits="userSpaceOnUse">
<stop offset="0.001" stop-color="#72252B"/>
<stop offset="1" stop-color="#985057"/>
</linearGradient>
<linearGradient id="paint56_linear_24853_69952" x1="32.4851" y1="26.936" x2="26.2761" y2="18.832" gradientUnits="userSpaceOnUse">
<stop offset="0.001" stop-color="#77272D"/>
<stop offset="1" stop-color="#93474E"/>
</linearGradient>
<linearGradient id="paint57_linear_24853_69952" x1="32.3972" y1="26.809" x2="26.6472" y2="19.305" gradientUnits="userSpaceOnUse">
<stop offset="0.001" stop-color="#7B292F"/>
<stop offset="1" stop-color="#8E3F45"/>
</linearGradient>
<linearGradient id="paint58_linear_24853_69952" x1="32.308" y1="26.6811" x2="27.018" y2="19.7781" gradientUnits="userSpaceOnUse">
<stop offset="0.001" stop-color="#802B32"/>
<stop offset="1" stop-color="#89363D"/>
</linearGradient>
<linearGradient id="paint59_linear_24853_69952" x1="21.0701" y1="28.6501" x2="25.2071" y2="28.6501" gradientUnits="userSpaceOnUse">
<stop offset="0.053" stop-color="#5C1C20" stop-opacity="0"/>
<stop offset="0.503" stop-color="#300E12" stop-opacity="0.6"/>
<stop offset="1" stop-color="#571A1D" stop-opacity="0"/>
</linearGradient>
<radialGradient id="paint60_radial_24853_69952" cx="0" cy="0" r="1" gradientUnits="userSpaceOnUse" gradientTransform="translate(41.452 6.731) scale(7.108)">
<stop stop-color="#1FD9F7"/>
<stop offset="0.707" stop-color="#0FA9D6"/>
<stop offset="1" stop-color="#0A9ACB"/>
</radialGradient>
<radialGradient id="paint61_radial_24853_69952" cx="0" cy="0" r="1" gradientUnits="userSpaceOnUse" gradientTransform="translate(40.064 12.309) scale(3.905)">
<stop stop-color="#DEBF84"/>
<stop offset="1" stop-color="#BA8E4C"/>
</radialGradient>
<radialGradient id="paint62_radial_24853_69952" cx="0" cy="0" r="1" gradientUnits="userSpaceOnUse" gradientTransform="translate(40.2253 3.5) scale(3.27434 3.905)">
<stop stop-color="#DEBF84"/>
<stop offset="1" stop-color="#BA8E4C"/>
</radialGradient>
</defs>
</svg>
