<svg width="48" height="48" viewBox="0 0 48 48" fill="none" xmlns="http://www.w3.org/2000/svg">
<path d="M16.577 4C16.258 4 16 4.258 16 4.577V13H18V7H30V13H32V4.577C32 4.258 31.742 4 31.423 4H16.577Z" fill="url(#paint0_linear_24853_70312)"/>
<path d="M30 4.23389H18V6.99989H30V4.23389Z" fill="url(#paint1_linear_24853_70312)"/>
<path d="M46 18H2L2.757 13.461C2.897 12.618 3.626 12 4.481 12H43.519C44.374 12 45.103 12.618 45.243 13.461L46 18Z" fill="url(#paint2_linear_24853_70312)"/>
<path d="M48 20H0V23H48V20Z" fill="#ED9A1E"/>
<path d="M45.5 15L45.243 13.461C45.103 12.618 44.374 12 43.519 12H4.481C3.626 12 2.897 12.618 2.757 13.461L2.5 15H45.5Z" fill="url(#paint3_linear_24853_70312)"/>
<path d="M0 23V26L2 28L2.874 42.237C2.945 43.231 3.771 44 4.767 44H43.233C44.229 44 45.055 43.231 45.126 42.237L46 28L48 26V23H0Z" fill="url(#paint4_linear_24853_70312)"/>
<path d="M45 12H38V23H45V12Z" fill="url(#paint5_linear_24853_70312)"/>
<path d="M48 20H0L2 18H46L48 20Z" fill="url(#paint6_linear_24853_70312)"/>
<path d="M37 12H29V23H37V12Z" fill="url(#paint7_linear_24853_70312)"/>
<path d="M0 26H48L46 28H2L0 26Z" fill="#0F0F0E"/>
<path d="M41 23H33V44H41V23Z" fill="url(#paint8_linear_24853_70312)"/>
<path d="M15 23H7V44H15V23Z" fill="url(#paint9_linear_24853_70312)"/>
<path d="M39.733 28H34.267C33.567 28 33 27.433 33 26.733V18H41V26.733C41 27.433 40.433 28 39.733 28Z" fill="url(#paint10_linear_24853_70312)"/>
<path d="M36 18H35V20H36V18Z" fill="#868687"/>
<path d="M39.5 24H34.5C34.224 24 34 23.776 34 23.5C34 23.224 34.224 23 34.5 23H39.5C39.776 23 40 23.224 40 23.5C40 23.776 39.776 24 39.5 24Z" fill="#727B84"/>
<path d="M39.5 26H34.5C34.224 26 34 25.776 34 25.5C34 25.224 34.224 25 34.5 25H39.5C39.776 25 40 25.224 40 25.5C40 25.776 39.776 26 39.5 26Z" fill="#727B84"/>
<path d="M39 18H38V20H39V18Z" fill="#868687"/>
<path d="M19 12H12V23H19V12Z" fill="url(#paint11_linear_24853_70312)"/>
<path d="M18 28H13V44H18V28Z" fill="url(#paint12_linear_24853_70312)"/>
<path d="M44 28H39V44H44V28Z" fill="url(#paint13_linear_24853_70312)"/>
<path d="M35 28H30V44H35V28Z" fill="url(#paint14_linear_24853_70312)"/>
<path d="M9 28H4V44H9V28Z" fill="url(#paint15_linear_24853_70312)"/>
<path d="M16 23H15V44H16V23Z" fill="#313130"/>
<path d="M7 23H6V44H7V23Z" fill="#313130"/>
<path d="M42 23H41V44H42V23Z" fill="#313130"/>
<path d="M11 12H4V23H11V12Z" fill="url(#paint16_linear_24853_70312)"/>
<path d="M33 23H32V44H33V23Z" fill="#313130"/>
<path d="M13.733 28H8.267C7.567 28 7 27.433 7 26.733V18H15V26.733C15 27.433 14.433 28 13.733 28Z" fill="url(#paint17_linear_24853_70312)"/>
<path d="M10 18H9V20H10V18Z" fill="#868687"/>
<path d="M13 18H12V20H13V18Z" fill="#868687"/>
<path d="M13.5 24H8.5C8.224 24 8 23.776 8 23.5C8 23.224 8.224 23 8.5 23H13.5C13.776 23 14 23.224 14 23.5C14 23.776 13.776 24 13.5 24Z" fill="#727B84"/>
<path d="M13.5 26H8.5C8.224 26 8 25.776 8 25.5C8 25.224 8.224 25 8.5 25H13.5C13.776 25 14 25.224 14 25.5C14 25.776 13.776 26 13.5 26Z" fill="#727B84"/>
<path d="M7 11.532H6V23H7V11.532Z" fill="url(#paint18_linear_24853_70312)"/>
<path d="M16 11.532H15V23H16V11.532Z" fill="url(#paint19_linear_24853_70312)"/>
<path d="M33 11.532H32V23H33V11.532Z" fill="url(#paint20_linear_24853_70312)"/>
<path d="M42 11.532H41V23H42V11.532Z" fill="url(#paint21_linear_24853_70312)"/>
<path d="M2.65991 39L2.87391 42.237C2.94491 43.231 3.77091 44 4.76691 44H43.2329C44.2289 44 45.0549 43.231 45.1259 42.237L45.3399 39H2.65991Z" fill="url(#paint22_linear_24853_70312)"/>
<defs>
<linearGradient id="paint0_linear_24853_70312" x1="24" y1="7.268" x2="24" y2="5.018" gradientUnits="userSpaceOnUse">
<stop offset="0.001" stop-color="#171714"/>
<stop offset="1" stop-color="#393938"/>
</linearGradient>
<linearGradient id="paint1_linear_24853_70312" x1="24" y1="4.64589" x2="24" y2="6.20589" gradientUnits="userSpaceOnUse">
<stop stop-color="#393938"/>
<stop offset="0.999" stop-color="#171714"/>
</linearGradient>
<linearGradient id="paint2_linear_24853_70312" x1="24" y1="11.489" x2="24" y2="21.403" gradientUnits="userSpaceOnUse">
<stop stop-color="#FFCA28"/>
<stop offset="1" stop-color="#ED9A1E"/>
</linearGradient>
<linearGradient id="paint3_linear_24853_70312" x1="24" y1="12.702" x2="24" y2="14.32" gradientUnits="userSpaceOnUse">
<stop stop-color="#FFD56C"/>
<stop offset="1" stop-color="#FFD56C" stop-opacity="0"/>
</linearGradient>
<linearGradient id="paint4_linear_24853_70312" x1="24" y1="20.559" x2="24" y2="54.021" gradientUnits="userSpaceOnUse">
<stop stop-color="#393938"/>
<stop offset="0.999" stop-color="#171714"/>
</linearGradient>
<linearGradient id="paint5_linear_24853_70312" x1="39.321" y1="17.5" x2="44.16" y2="17.5" gradientUnits="userSpaceOnUse">
<stop offset="0.051" stop-color="#FBBE26" stop-opacity="0"/>
<stop offset="0.544" stop-color="#ED9A1E"/>
<stop offset="0.97" stop-color="#F6B223" stop-opacity="0"/>
</linearGradient>
<linearGradient id="paint6_linear_24853_70312" x1="24" y1="18" x2="24" y2="20" gradientUnits="userSpaceOnUse">
<stop stop-color="#FFD56C"/>
<stop offset="1" stop-color="#F4AD22"/>
</linearGradient>
<linearGradient id="paint7_linear_24853_70312" x1="31.225" y1="17.5" x2="34.691" y2="17.5" gradientUnits="userSpaceOnUse">
<stop offset="0.051" stop-color="#FBBE26" stop-opacity="0"/>
<stop offset="0.544" stop-color="#ED9A1E"/>
<stop offset="0.97" stop-color="#F6B223" stop-opacity="0"/>
</linearGradient>
<linearGradient id="paint8_linear_24853_70312" x1="37.059" y1="26.254" x2="36.994" y2="34.283" gradientUnits="userSpaceOnUse">
<stop stop-color="#070707"/>
<stop offset="0.999" stop-color="#232321"/>
</linearGradient>
<linearGradient id="paint9_linear_24853_70312" x1="11.072" y1="24.716" x2="11.006" y2="32.745" gradientUnits="userSpaceOnUse">
<stop stop-color="#070707"/>
<stop offset="0.999" stop-color="#232321"/>
</linearGradient>
<linearGradient id="paint10_linear_24853_70312" x1="37" y1="17.681" x2="37" y2="26.57" gradientUnits="userSpaceOnUse">
<stop stop-color="#ABB1BA"/>
<stop offset="0.087" stop-color="#EDF2F4"/>
<stop offset="0.59" stop-color="#AAB1B9"/>
<stop offset="1" stop-color="#7F8894"/>
</linearGradient>
<linearGradient id="paint11_linear_24853_70312" x1="13.321" y1="17.5" x2="18.16" y2="17.5" gradientUnits="userSpaceOnUse">
<stop offset="0.051" stop-color="#FBBE26" stop-opacity="0"/>
<stop offset="0.544" stop-color="#ED9A1E"/>
<stop offset="0.97" stop-color="#F6B223" stop-opacity="0"/>
</linearGradient>
<linearGradient id="paint12_linear_24853_70312" x1="13.944" y1="36" x2="17.4" y2="36" gradientUnits="userSpaceOnUse">
<stop offset="0.051" stop-color="#0A0A0A" stop-opacity="0"/>
<stop offset="0.544" stop-color="#070707" stop-opacity="0.4"/>
<stop offset="0.97" stop-color="#0A0A0A" stop-opacity="0"/>
</linearGradient>
<linearGradient id="paint13_linear_24853_70312" x1="39.944" y1="36" x2="43.4" y2="36" gradientUnits="userSpaceOnUse">
<stop offset="0.051" stop-color="#0A0A0A" stop-opacity="0"/>
<stop offset="0.544" stop-color="#070707" stop-opacity="0.4"/>
<stop offset="0.97" stop-color="#0A0A0A" stop-opacity="0"/>
</linearGradient>
<linearGradient id="paint14_linear_24853_70312" x1="30.944" y1="36" x2="34.4" y2="36" gradientUnits="userSpaceOnUse">
<stop offset="0.051" stop-color="#0A0A0A" stop-opacity="0"/>
<stop offset="0.544" stop-color="#070707" stop-opacity="0.4"/>
<stop offset="0.97" stop-color="#0A0A0A" stop-opacity="0"/>
</linearGradient>
<linearGradient id="paint15_linear_24853_70312" x1="4.944" y1="36" x2="8.4" y2="36" gradientUnits="userSpaceOnUse">
<stop offset="0.051" stop-color="#0A0A0A" stop-opacity="0"/>
<stop offset="0.544" stop-color="#070707" stop-opacity="0.4"/>
<stop offset="0.97" stop-color="#0A0A0A" stop-opacity="0"/>
</linearGradient>
<linearGradient id="paint16_linear_24853_70312" x1="4.957" y1="17.5" x2="8.485" y2="17.5" gradientUnits="userSpaceOnUse">
<stop offset="0.051" stop-color="#FBBE26" stop-opacity="0"/>
<stop offset="0.544" stop-color="#ED9A1E"/>
<stop offset="0.97" stop-color="#F6B223" stop-opacity="0"/>
</linearGradient>
<linearGradient id="paint17_linear_24853_70312" x1="11" y1="17.681" x2="11" y2="26.57" gradientUnits="userSpaceOnUse">
<stop stop-color="#ABB1BA"/>
<stop offset="0.087" stop-color="#EDF2F4"/>
<stop offset="0.59" stop-color="#AAB1B9"/>
<stop offset="1" stop-color="#7F8894"/>
</linearGradient>
<linearGradient id="paint18_linear_24853_70312" x1="6.5" y1="11.532" x2="6.5" y2="18.779" gradientUnits="userSpaceOnUse">
<stop stop-color="#FFD56C"/>
<stop offset="1" stop-color="#F4AD22"/>
</linearGradient>
<linearGradient id="paint19_linear_24853_70312" x1="15.5" y1="11.532" x2="15.5" y2="18.779" gradientUnits="userSpaceOnUse">
<stop stop-color="#FFD56C"/>
<stop offset="1" stop-color="#F4AD22"/>
</linearGradient>
<linearGradient id="paint20_linear_24853_70312" x1="32.5" y1="11.532" x2="32.5" y2="18.779" gradientUnits="userSpaceOnUse">
<stop stop-color="#FFD56C"/>
<stop offset="1" stop-color="#F4AD22"/>
</linearGradient>
<linearGradient id="paint21_linear_24853_70312" x1="41.5" y1="11.532" x2="41.5" y2="18.779" gradientUnits="userSpaceOnUse">
<stop stop-color="#FFD56C"/>
<stop offset="1" stop-color="#F4AD22"/>
</linearGradient>
<linearGradient id="paint22_linear_24853_70312" x1="23.9999" y1="43.255" x2="23.9999" y2="40.187" gradientUnits="userSpaceOnUse">
<stop stop-color="#070707" stop-opacity="0.7"/>
<stop offset="0.97" stop-color="#0A0A0A" stop-opacity="0"/>
</linearGradient>
</defs>
</svg>
