<svg width="48" height="48" viewBox="0 0 48 48" fill="none" xmlns="http://www.w3.org/2000/svg">
<rect width="48" height="48" fill="white"/>
<path d="M38.9531 42.0001H9.0481V20.9561L24.0001 9.98608L38.9531 20.9561V42.0001Z" fill="#D9D9D9"/>
<path d="M16.509 9.30688H11.167V19.1009H16.509V9.30688Z" fill="#D9D9D9"/>
<path d="M35.033 22.4619H25.759V38.4379H35.033V22.4619Z" fill="url(#paint0_radial_24853_69929)"/>
<path d="M35.4239 38.8841H25.3679V22.0171H35.4239V38.8841ZM26.1499 37.9931H34.6429V22.9081H26.1499V37.9931Z" fill="#754D33"/>
<path d="M17.4001 6.63599H10.2771V9.30699H17.4001V6.63599Z" fill="#EB4B1A"/>
<path d="M20.806 22.4619H12.51V30.7579H20.806V22.4619Z" fill="url(#paint1_radial_24853_69929)"/>
<path d="M21.2519 31.2041H12.0649V22.0171H21.2519V31.2041ZM12.9559 30.3141H20.3619V22.9081H12.9559V30.3141Z" fill="#754D33"/>
<path d="M17.1029 22.4409H16.2129V30.7589H17.1029V22.4409Z" fill="#754D33"/>
<path d="M20.817 26.155H12.499V27.045H20.817V26.155Z" fill="#754D33"/>
<path d="M21.9099 30.27H11.3999V31.494H21.9099V30.27Z" fill="#754D33"/>
<path d="M36.396 37.9929H24.365V39.2169H36.396V37.9929Z" fill="url(#paint2_linear_24853_69929)"/>
<path d="M37.5361 39.218H23.1931V40.442H37.5361V39.218Z" fill="url(#paint3_linear_24853_69929)"/>
<path d="M40.0849 40.4419H7.85791V41.9999H40.0849V40.4419Z" fill="url(#paint4_linear_24853_69929)"/>
<g opacity="0.5">
<path d="M27.1001 28.828H29.8871V23.907H27.1001V28.828ZM27.5451 24.353H29.4421V28.383H27.5451V24.353Z" fill="#7A3D1C"/>
<path d="M30.9102 36.8419H33.6972V31.9199H30.9102V36.8419ZM31.3562 32.3659H33.2532V36.3959H31.3562V32.3659Z" fill="#7A3D1C"/>
<path d="M27.1001 36.8419H29.8871V31.9199H27.1001V36.8419ZM27.5451 32.3659H29.4421V36.3959H27.5451V32.3659Z" fill="#7A3D1C"/>
<path d="M30.9102 23.907V28.828H33.6972V23.907H30.9102ZM33.2522 28.383H31.3552V24.353H33.2522V28.383Z" fill="#7A3D1C"/>
</g>
<path d="M33.0771 31.049C33.4499 31.049 33.7521 30.7468 33.7521 30.374C33.7521 30.0012 33.4499 29.699 33.0771 29.699C32.7043 29.699 32.4021 30.0012 32.4021 30.374C32.4021 30.7468 32.7043 31.049 33.0771 31.049Z" fill="url(#paint5_radial_24853_69929)"/>
<path d="M9.0481 20.9561V23.0701L24.0001 11.9841V11.9881L24.0031 11.9861L24.0061 11.9881V11.9841L38.9531 23.0661V20.9561L24.0001 9.98608L9.0481 20.9561Z" fill="url(#paint6_linear_24853_69929)"/>
<path d="M24.0059 6.40698L24.0029 6.40898L23.9999 6.40698L4.91089 20.351L6.81189 23.363L23.9999 10.619V10.623L24.0029 10.621L24.0059 10.623V10.619L41.1939 23.363L43.0949 20.351L24.0059 6.40698Z" fill="#EB4B1A"/>
<path d="M16.509 9.30688H11.167V10.2199H16.509V9.30688Z" fill="url(#paint7_linear_24853_69929)"/>
<defs>
<radialGradient id="paint0_radial_24853_69929" cx="0" cy="0" r="1" gradientUnits="userSpaceOnUse" gradientTransform="translate(30.3965 30.4528) scale(8.59123 11.4533)">
<stop offset="0.021" stop-color="#D9813F"/>
<stop offset="0.283" stop-color="#C57036"/>
<stop offset="0.74" stop-color="#A75729"/>
<stop offset="1" stop-color="#9C4D24"/>
</radialGradient>
<radialGradient id="paint1_radial_24853_69929" cx="0" cy="0" r="1" gradientUnits="userSpaceOnUse" gradientTransform="translate(16.659 26.6109) scale(5.781)">
<stop offset="0.117" stop-color="#ADF5FF"/>
<stop offset="0.247" stop-color="#A7F2FF"/>
<stop offset="0.427" stop-color="#95EAFF"/>
<stop offset="0.636" stop-color="#77DDFF"/>
<stop offset="0.867" stop-color="#4ECBFF"/>
<stop offset="1" stop-color="#33BFFF"/>
</radialGradient>
<linearGradient id="paint2_linear_24853_69929" x1="30.381" y1="37.6039" x2="30.381" y2="39.2609" gradientUnits="userSpaceOnUse">
<stop stop-color="#D1CBC2"/>
<stop offset="0.165" stop-color="#C8C2B9"/>
<stop offset="0.432" stop-color="#B0ABA2"/>
<stop offset="0.767" stop-color="#89857C"/>
<stop offset="1" stop-color="#6A665E"/>
</linearGradient>
<linearGradient id="paint3_linear_24853_69929" x1="30.3641" y1="38.828" x2="30.3641" y2="40.485" gradientUnits="userSpaceOnUse">
<stop stop-color="#D1CBC2"/>
<stop offset="0.165" stop-color="#C8C2B9"/>
<stop offset="0.432" stop-color="#B0ABA2"/>
<stop offset="0.767" stop-color="#89857C"/>
<stop offset="1" stop-color="#6A665E"/>
</linearGradient>
<linearGradient id="paint4_linear_24853_69929" x1="23.9709" y1="39.9459" x2="23.9709" y2="42.0549" gradientUnits="userSpaceOnUse">
<stop stop-color="#D1CBC2"/>
<stop offset="0.165" stop-color="#C8C2B9"/>
<stop offset="0.432" stop-color="#B0ABA2"/>
<stop offset="0.767" stop-color="#89857C"/>
<stop offset="1" stop-color="#6A665E"/>
</linearGradient>
<radialGradient id="paint5_radial_24853_69929" cx="0" cy="0" r="1" gradientUnits="userSpaceOnUse" gradientTransform="translate(33.0771 30.375) scale(0.674999)">
<stop stop-color="#FF9E00"/>
<stop offset="1" stop-color="#9E4F00"/>
</radialGradient>
<linearGradient id="paint6_linear_24853_69929" x1="24.0001" y1="6.75708" x2="24.0001" y2="25.4041" gradientUnits="userSpaceOnUse">
<stop stop-color="#ABA59E"/>
<stop offset="0.944" stop-color="#ADA7A0"/>
</linearGradient>
<linearGradient id="paint7_linear_24853_69929" x1="13.839" y1="9.01588" x2="13.839" y2="10.2519" gradientUnits="userSpaceOnUse">
<stop stop-color="#ABA59E"/>
<stop offset="0.944" stop-color="#ADA7A0"/>
</linearGradient>
</defs>
</svg>
